<svg width="25" height="24" viewBox="0 0 25 24" fill="none" xmlns="http://www.w3.org/2000/svg">
<path opacity="0.4" d="M17.4898 10.9299V13.0699C17.4898 14.9499 16.4498 16.6 14.9098 17.45C14.7398 17.54 14.5598 17.6299 14.3698 17.7099C14.0898 17.8199 13.7998 17.9099 13.4998 17.9699C13.1798 18.0299 12.8498 18.0699 12.5098 18.0699C12.4998 18.0699 12.4998 18.0699 12.4898 18.0699C12.1498 18.0699 11.8198 18.0299 11.4998 17.9699C11.2098 17.9099 10.9198 17.8199 10.6398 17.7099L10.0898 17.45C9.95976 17.37 9.82976 17.2999 9.70976 17.2099C8.38976 16.3199 7.50977 14.7999 7.50977 13.0699V10.9299C7.50977 10.0699 7.72976 9.25993 8.10976 8.54993C8.18976 8.40993 8.26976 8.26995 8.35976 8.13995C8.44976 7.99995 8.54976 7.87994 8.64977 7.74994C8.74977 7.62994 8.85976 7.50993 8.96976 7.39993C9.19976 7.16993 9.44976 6.96995 9.70976 6.78995C9.84976 6.69995 9.97976 6.60994 10.1298 6.52994C10.2498 6.46994 10.3798 6.39994 10.5098 6.33994C10.6798 6.26994 10.8498 6.19994 11.0198 6.15994C11.1598 6.10994 11.2998 6.07993 11.4398 6.04993C11.4698 6.02993 11.5098 6.02993 11.5498 6.01993C11.8598 5.95993 12.1698 5.92993 12.4898 5.92993H12.5098C12.8298 5.92993 13.1498 5.95993 13.4598 6.01993C13.4698 6.02993 13.4898 6.02994 13.4998 6.02994C13.6598 6.06994 13.8198 6.10994 13.9798 6.15994C14.1398 6.19994 14.2898 6.25995 14.4398 6.31995C14.5898 6.38995 14.7398 6.45994 14.8798 6.52994C15.2998 6.76994 15.6898 7.05993 16.0298 7.39993C16.9298 8.29993 17.4898 9.54993 17.4898 10.9299Z" fill="#464646"/>
<path d="M22.5 9.75C22.09 9.75 21.75 9.41 21.75 9V7C21.75 4.42 20.08 2.75 17.5 2.75H15.5C15.09 2.75 14.75 2.41 14.75 2C14.75 1.59 15.09 1.25 15.5 1.25H17.5C20.94 1.25 23.25 3.56 23.25 7V9C23.25 9.41 22.91 9.75 22.5 9.75Z" fill="#464646"/>
<path d="M2.5 9.75C2.09 9.75 1.75 9.41 1.75 9V7C1.75 3.56 4.06 1.25 7.5 1.25H9.5C9.91 1.25 10.25 1.59 10.25 2C10.25 2.41 9.91 2.75 9.5 2.75H7.5C4.92 2.75 3.25 4.42 3.25 7V9C3.25 9.41 2.91 9.75 2.5 9.75Z" fill="#464646"/>
<path d="M17.5 22.75H15.5C15.09 22.75 14.75 22.41 14.75 22C14.75 21.59 15.09 21.25 15.5 21.25H17.5C20.08 21.25 21.75 19.58 21.75 17V15C21.75 14.59 22.09 14.25 22.5 14.25C22.91 14.25 23.25 14.59 23.25 15V17C23.25 20.44 20.94 22.75 17.5 22.75Z" fill="#464646"/>
<path d="M9.5 22.75H7.5C4.06 22.75 1.75 20.44 1.75 17V15C1.75 14.59 2.09 14.25 2.5 14.25C2.91 14.25 3.25 14.59 3.25 15V17C3.25 19.58 4.92 21.25 7.5 21.25H9.5C9.91 21.25 10.25 21.59 10.25 22C10.25 22.41 9.91 22.75 9.5 22.75Z" fill="#464646"/>
<path d="M12.5001 15.63C11.1801 15.63 10.1001 14.55 10.1001 13.23V10.76C10.1001 9.44001 11.1801 8.35999 12.5001 8.35999C13.8201 8.35999 14.9001 9.44001 14.9001 10.76V13.23C14.9001 14.56 13.8201 15.63 12.5001 15.63ZM12.5001 9.87C12.0101 9.87 11.6001 10.27 11.6001 10.77V13.24C11.6001 13.74 12.0001 14.14 12.5001 14.14C13.0001 14.14 13.4001 13.74 13.4001 13.24V10.77C13.4001 10.27 12.9901 9.87 12.5001 9.87Z" fill="#464646"/>
</svg>
