<svg width="25" height="25" viewBox="0 0 25 25" fill="none" xmlns="http://www.w3.org/2000/svg">
<path opacity="0.4" d="M12.5 2.5C9.88 2.5 7.75 4.63 7.75 7.25C7.75 9.82 9.76 11.9 12.38 11.99C12.46 11.98 12.54 11.98 12.6 11.99C12.62 11.99 12.63 11.99 12.65 11.99C12.66 11.99 12.66 11.99 12.67 11.99C15.23 11.9 17.24 9.82 17.25 7.25C17.25 4.63 15.12 2.5 12.5 2.5Z" fill="#55403E"/>
<path d="M17.58 14.65C14.79 12.79 10.24 12.79 7.42996 14.65C6.15996 15.5 5.45996 16.65 5.45996 17.88C5.45996 19.11 6.15996 20.25 7.41996 21.09C8.81996 22.03 10.66 22.5 12.5 22.5C14.34 22.5 16.18 22.03 17.58 21.09C18.84 20.24 19.54 19.1 19.54 17.86C19.53 16.63 18.84 15.49 17.58 14.65Z" fill="#55403E"/>
</svg>
