<svg width="25" height="24" viewBox="0 0 25 24" fill="none" xmlns="http://www.w3.org/2000/svg">
<path d="M22.48 15.65C21.66 14.64 20.41 14 19 14C17.94 14 16.96 14.37 16.19 14.99C15.15 15.81 14.5 17.08 14.5 18.5C14.5 19.91 15.14 21.16 16.15 21.98C16.92 22.62 17.92 23 19 23C20.14 23 21.17 22.57 21.97 21.88C22.9 21.05 23.5 19.85 23.5 18.5C23.5 17.42 23.12 16.42 22.48 15.65ZM20.03 18.78C20.03 19.04 19.89 19.29 19.67 19.42L18.26 20.26C18.14 20.33 18.01 20.37 17.87 20.37C17.62 20.37 17.37 20.24 17.23 20.01C17.02 19.65 17.13 19.19 17.49 18.98L18.53 18.36V17.1C18.53 16.69 18.87 16.35 19.28 16.35C19.69 16.35 20.03 16.69 20.03 17.1V18.78Z" fill="#464646"/>
<path opacity="0.4" d="M22.5 7.81V15.7C22.5 15.69 22.49 15.68 22.48 15.67C22.44 15.61 22.39 15.55 22.34 15.5C22.33 15.49 22.32 15.47 22.31 15.46C21.5 14.56 20.31 14 19 14C17.74 14 16.59 14.52 15.77 15.36C14.98 16.17 14.5 17.28 14.5 18.5C14.5 19.34 14.74 20.14 15.15 20.82C15.37 21.19 15.65 21.53 15.97 21.81C15.99 21.82 16 21.83 16.01 21.84C16.06 21.89 16.11 21.93 16.17 21.98C16.17 21.98 16.17 21.98 16.18 21.98C16.19 21.99 16.2 22 16.21 22H8.31C4.67 22 2.5 19.83 2.5 16.19V7.81C2.5 7.3 2.54 6.80999 2.63 6.35999C3.14 3.60999 5.16999 2.01 8.26999 2H16.73C19.83 2.01 21.86 3.60999 22.37 6.35999C22.46 6.80999 22.5 7.3 22.5 7.81Z" fill="#464646"/>
<path d="M22.5 7.81V7.85999H2.5V7.81C2.5 7.3 2.54 6.80999 2.63 6.35999H8.26999V2H9.76999V6.35999H15.23V2H16.73V6.35999H22.37C22.46 6.80999 22.5 7.3 22.5 7.81Z" fill="#464646"/>
</svg>
