<svg width="25" height="24" viewBox="0 0 25 24" fill="none" xmlns="http://www.w3.org/2000/svg">
<path d="M19.6199 14.9399L19.9399 15.5899C20.0999 15.9099 20.5099 16.2099 20.8499 16.2699L21.2799 16.3399C22.5899 16.5599 22.8899 17.5199 21.9599 18.4599L21.5599 18.8599C21.2899 19.1299 21.1499 19.6499 21.2299 20.0299L21.2799 20.2699C21.6399 21.8499 20.7999 22.4599 19.4299 21.6299L19.1399 21.4499C18.7899 21.2399 18.2099 21.2399 17.8599 21.4499L17.5699 21.6299C16.1899 22.4599 15.3599 21.8499 15.7199 20.2699L15.7699 20.0299C15.8499 19.6599 15.7099 19.1299 15.4399 18.8599L15.0399 18.4599C14.1099 17.5099 14.4099 16.5599 15.7199 16.3399L16.1499 16.2699C16.4999 16.2099 16.8999 15.9099 17.0599 15.5899L17.3799 14.9399C17.9999 13.6899 18.9999 13.6899 19.6199 14.9399Z" fill="url(#paint0_linear_175_3831)"/>
<path d="M16.69 2H8.31C4.67 2 2.5 4.17 2.5 7.81V16.19C2.5 19.83 4.67 22 8.31 22H13.59C13.94 22 14.19 21.64 14.15 21.29C14.11 20.91 14.13 20.46 14.25 19.94C14.27 19.87 14.25 19.79 14.19 19.73L13.97 19.51C13.12 18.65 12.81 17.61 13.11 16.66C13.42 15.72 14.28 15.06 15.47 14.86L15.77 14.81L16.04 14.27C16.59 13.15 17.49 12.5 18.5 12.5C19.51 12.5 20.41 13.15 20.96 14.27L21.11 14.58C21.18 14.73 21.32 14.83 21.48 14.86C21.57 14.88 21.66 14.9 21.75 14.92C22.1 15.01 22.5 14.73 22.5 14.36V7.81C22.5 4.17 20.33 2 16.69 2ZM16.76 8.96L14.45 11.94C14.16 12.31 13.75 12.55 13.28 12.6C12.82 12.66 12.35 12.53 11.99 12.24L10.16 10.82C10.09 10.76 10.01 10.76 9.97 10.77C9.93 10.77 9.86 10.79 9.8 10.87L7.42 13.96C7.27 14.15 7.05 14.25 6.82 14.25C6.66 14.25 6.5 14.2 6.36 14.09C6.03 13.84 5.97 13.37 6.22 13.04L8.6 9.95C8.89 9.58 9.3 9.34 9.77 9.28C10.24 9.22 10.7 9.35 11.07 9.64L12.9 11.08C12.97 11.14 13.04 11.13 13.09 11.13C13.13 11.13 13.2 11.11 13.26 11.03L15.57 8.05C15.82 7.72 16.29 7.66 16.62 7.92C16.96 8.17 17.01 8.64 16.76 8.96Z" fill="url(#paint1_linear_175_3831)"/>
<defs>
<linearGradient id="paint0_linear_175_3831" x1="18.4999" y1="14.0024" x2="18.4999" y2="22.0009" gradientUnits="userSpaceOnUse">
<stop stop-color="#FFA229"/>
<stop offset="1" stop-color="#B84D14"/>
</linearGradient>
<linearGradient id="paint1_linear_175_3831" x1="12.5" y1="2" x2="12.5" y2="22" gradientUnits="userSpaceOnUse">
<stop stop-color="#FFA229"/>
<stop offset="1" stop-color="#B84D14"/>
</linearGradient>
</defs>
</svg>
