<svg width="25" height="24" viewBox="0 0 25 24" fill="none" xmlns="http://www.w3.org/2000/svg">
<path d="M14.1001 14.51L13.5701 13.98L14.0701 13.48C14.3601 13.19 14.3601 12.71 14.0701 12.42C13.7801 12.13 13.3001 12.13 13.0101 12.42L12.5101 12.92L11.9801 12.39C11.6901 12.1 11.2101 12.1 10.9201 12.39C10.6301 12.68 10.6301 13.16 10.9201 13.45L11.4501 13.98L10.9001 14.53C10.6101 14.82 10.6101 15.3 10.9001 15.59C11.0501 15.74 11.2401 15.81 11.4301 15.81C11.6201 15.81 11.8101 15.74 11.9601 15.59L12.5101 15.04L13.0401 15.57C13.1901 15.72 13.3801 15.79 13.5701 15.79C13.7601 15.79 13.9501 15.72 14.1001 15.57C14.3901 15.28 14.3901 14.81 14.1001 14.51Z" fill="#464646"/>
<path opacity="0.4" d="M22.3499 11.41L21.7299 18.19C21.5199 20.19 20.6999 22.23 16.2999 22.23H8.6799C4.2799 22.23 3.4599 20.19 3.2599 18.2L2.6499 11.69C2.6599 11.7 2.6699 11.71 2.6899 11.72C3.0299 11.94 3.3599 12.16 3.7199 12.36C3.8599 12.45 4.0099 12.53 4.1599 12.61C5.2899 13.23 6.4999 13.72 7.7499 14.06C8.2499 14.21 8.7599 14.32 9.2799 14.41C9.4799 16.01 10.8499 17.25 12.4999 17.25C14.1699 17.25 15.5499 15.98 15.7299 14.35V14.34C16.2399 14.24 16.7499 14.11 17.2499 13.96C18.4999 13.57 19.7099 13.05 20.8399 12.39C20.8999 12.36 20.9499 12.33 20.9899 12.3C21.4499 12.05 21.8899 11.76 22.3099 11.46C22.3299 11.45 22.3399 11.43 22.3499 11.41Z" fill="#464646"/>
<path d="M21.59 6.98002C20.74 6.04002 19.33 5.57002 17.26 5.57002H17.02V5.53002C17.02 3.85002 17.02 1.77002 13.26 1.77002H11.74C7.98004 1.77002 7.98004 3.85002 7.98004 5.53002V5.57002H7.74004C5.67004 5.57002 4.25004 6.04002 3.41004 6.98002C2.42004 8.09002 2.45004 9.56002 2.55004 10.57L2.56004 10.64L2.65004 11.69C2.66004 11.7 2.68004 11.71 2.70004 11.72C3.04004 11.94 3.37004 12.16 3.73004 12.36C3.87004 12.45 4.02004 12.53 4.17004 12.61C5.30004 13.23 6.51004 13.72 7.75004 14.06C7.78004 16.65 9.90004 18.75 12.5 18.75C15.12 18.75 17.25 16.62 17.25 14V13.96C18.51 13.58 19.72 13.05 20.85 12.39C20.91 12.36 20.95 12.33 21 12.3C21.46 12.05 21.9 11.76 22.32 11.46C22.33 11.45 22.35 11.43 22.36 11.41L22.4 11.05L22.45 10.58C22.46 10.52 22.46 10.47 22.47 10.4C22.55 9.40002 22.53 8.02002 21.59 6.98002ZM9.41004 5.53002C9.41004 3.83002 9.41004 3.19002 11.74 3.19002H13.26C15.59 3.19002 15.59 3.83002 15.59 5.53002V5.57002H9.41004V5.53002ZM12.5 17.25C10.85 17.25 9.48004 16.01 9.28004 14.41C9.26004 14.28 9.25004 14.14 9.25004 14C9.25004 12.21 10.71 10.75 12.5 10.75C14.29 10.75 15.75 12.21 15.75 14C15.75 14.12 15.74 14.23 15.73 14.34V14.35C15.55 15.98 14.17 17.25 12.5 17.25Z" fill="#464646"/>
</svg>
