<svg width="25" height="24" viewBox="0 0 25 24" fill="none" xmlns="http://www.w3.org/2000/svg">
<path opacity="0.4" d="M22.47 6.41V12.91H2.5V6.41C2.5 3.98 4.48 2 6.91 2H18.06C20.49 2 22.47 3.98 22.47 6.41Z" fill="#464646"/>
<path d="M2.5 12.92V13.12C2.5 15.56 4.48 17.53 6.91 17.53H10.75C11.3 17.53 11.75 17.98 11.75 18.53V19.5C11.75 20.05 11.3 20.5 10.75 20.5H8.33C7.92 20.5 7.58 20.84 7.58 21.25C7.58 21.66 7.91 22 8.33 22H16.68C17.09 22 17.43 21.66 17.43 21.25C17.43 20.84 17.09 20.5 16.68 20.5H14.26C13.71 20.5 13.26 20.05 13.26 19.5V18.53C13.26 17.98 13.71 17.53 14.26 17.53H18.07C20.51 17.53 22.48 15.55 22.48 13.12V12.92H2.5Z" fill="#464646"/>
</svg>
