<svg width="25" height="25" viewBox="0 0 25 25" fill="none" xmlns="http://www.w3.org/2000/svg">
<path opacity="0.4" d="M15.98 3.5H8.02C4.57 3.5 2.5 5.56 2.5 9.02V16.97C2.5 20.44 4.57 22.5 8.02 22.5H15.97C19.43 22.5 21.49 20.44 21.49 16.98V9.02C21.5 5.56 19.43 3.5 15.98 3.5Z" fill="#55403E"/>
<path d="M21.52 3.48003C19.73 1.68003 17.98 1.64003 16.14 3.48003L15.01 4.60003C14.91 4.70003 14.88 4.84003 14.92 4.97003C15.62 7.42003 17.58 9.38003 20.03 10.08C20.06 10.09 20.11 10.09 20.14 10.09C20.24 10.09 20.34 10.05 20.41 9.98003L21.52 8.86003C22.43 7.95003 22.88 7.08003 22.88 6.19003C22.88 5.29003 22.43 4.40003 21.52 3.48003Z" fill="#55403E"/>
<path d="M18.3601 10.92C18.0901 10.79 17.8301 10.66 17.5901 10.51C17.3901 10.39 17.1901 10.26 17.0001 10.12C16.8401 10.02 16.6601 9.86997 16.4801 9.71997C16.4601 9.70997 16.4001 9.65997 16.3201 9.57997C16.0101 9.32997 15.6801 8.98997 15.3701 8.61997C15.3501 8.59997 15.2901 8.53997 15.2401 8.44997C15.1401 8.33997 14.9901 8.14997 14.8601 7.93997C14.7501 7.79997 14.6201 7.59997 14.5001 7.38997C14.3501 7.13997 14.2201 6.88997 14.1001 6.62997C13.9701 6.34997 13.8701 6.08997 13.7801 5.83997L8.4001 11.22C8.0501 11.57 7.7101 12.23 7.6401 12.72L7.2101 15.7C7.1201 16.33 7.2901 16.92 7.6801 17.31C8.0101 17.64 8.4601 17.81 8.9601 17.81C9.0701 17.81 9.1801 17.8 9.2901 17.79L12.2601 17.37C12.7501 17.3 13.4101 16.97 13.7601 16.61L19.1401 11.23C18.8901 11.15 18.6401 11.04 18.3601 10.92Z" fill="#55403E"/>
</svg>
