<svg width="29" height="27" viewBox="0 0 29 27" fill="none" xmlns="http://www.w3.org/2000/svg">
<path opacity="0.4" d="M12 5C9.38 5 7.25 7.13 7.25 9.75C7.25 12.32 9.26 14.4 11.88 14.49C11.96 14.48 12.04 14.48 12.1 14.49C12.12 14.49 12.13 14.49 12.15 14.49C12.16 14.49 12.16 14.49 12.17 14.49C14.73 14.4 16.74 12.32 16.75 9.75C16.75 7.13 14.62 5 12 5Z" fill="#55403E"/>
<path d="M17.08 17.15C14.29 15.29 9.73996 15.29 6.92996 17.15C5.65996 18 4.95996 19.15 4.95996 20.38C4.95996 21.61 5.65996 22.75 6.91996 23.59C8.31996 24.53 10.16 25 12 25C13.84 25 15.68 24.53 17.08 23.59C18.34 22.74 19.04 21.6 19.04 20.36C19.03 19.13 18.34 17.99 17.08 17.15Z" fill="#55403E"/>
<path opacity="0.4" d="M23 11C25.7614 11 28 8.76142 28 6C28 3.23858 25.7614 1 23 1C20.2386 1 18 3.23858 18 6C18 8.76142 20.2386 11 23 11Z" fill="#55403E"/>
<path d="M23 6.875C23.205 6.875 23.375 6.705 23.375 6.5V4C23.375 3.795 23.205 3.625 23 3.625C22.795 3.625 22.625 3.795 22.625 4V6.5C22.625 6.705 22.795 6.875 23 6.875Z" fill="#55403E"/>
<path d="M23.46 7.80994C23.435 7.74994 23.4 7.69494 23.355 7.64494C23.305 7.59994 23.25 7.56494 23.19 7.53994C23.07 7.48994 22.93 7.48994 22.81 7.53994C22.75 7.56494 22.695 7.59994 22.645 7.64494C22.6 7.69494 22.565 7.74994 22.54 7.80994C22.515 7.86994 22.5 7.93494 22.5 7.99994C22.5 8.06494 22.515 8.12994 22.54 8.18994C22.565 8.25494 22.6 8.30494 22.645 8.35494C22.695 8.39994 22.75 8.43494 22.81 8.45994C22.87 8.48494 22.935 8.49994 23 8.49994C23.065 8.49994 23.13 8.48494 23.19 8.45994C23.25 8.43494 23.305 8.39994 23.355 8.35494C23.4 8.30494 23.435 8.25494 23.46 8.18994C23.485 8.12994 23.5 8.06494 23.5 7.99994C23.5 7.93494 23.485 7.86994 23.46 7.80994Z" fill="#55403E"/>
</svg>
