<svg width="25" height="24" viewBox="0 0 25 24" fill="none" xmlns="http://www.w3.org/2000/svg">
<path opacity="0.4" d="M12.5 22C18.0228 22 22.5 17.5228 22.5 12C22.5 6.47715 18.0228 2 12.5 2C6.97715 2 2.5 6.47715 2.5 12C2.5 17.5228 6.97715 22 12.5 22Z" fill="#464646"/>
<path d="M16.2101 15.93C16.0801 15.93 15.9501 15.9 15.8301 15.82L12.7301 13.97C11.9601 13.51 11.3901 12.5 11.3901 11.61V7.51001C11.3901 7.10001 11.7301 6.76001 12.1401 6.76001C12.5501 6.76001 12.8901 7.10001 12.8901 7.51001V11.61C12.8901 11.97 13.1901 12.5 13.5001 12.68L16.6001 14.53C16.9601 14.74 17.0701 15.2 16.8601 15.56C16.7101 15.8 16.4601 15.93 16.2101 15.93Z" fill="#464646"/>
</svg>
