<svg width="25" height="24" viewBox="0 0 25 24" fill="none" xmlns="http://www.w3.org/2000/svg">
<path d="M13.25 15.9199H13.9C14.55 15.9199 15.09 15.3399 15.09 14.6399C15.09 13.7699 14.78 13.5999 14.27 13.4199L13.26 13.0699V15.9199H13.25Z" fill="url(#paint0_linear_175_3823)"/>
<path d="M12.4701 1.90004C6.95007 1.92004 2.48007 6.41004 2.50007 11.93C2.52007 17.45 7.01007 21.92 12.5301 21.9C18.0501 21.88 22.5201 17.39 22.5001 11.87C22.4801 6.35004 17.9901 1.89004 12.4701 1.90004ZM14.7601 12C15.5401 12.27 16.5901 12.85 16.5901 14.64C16.5901 16.18 15.3801 17.42 13.9001 17.42H13.2501V18C13.2501 18.41 12.9101 18.75 12.5001 18.75C12.0901 18.75 11.7501 18.41 11.7501 18V17.42H11.3901C9.75007 17.42 8.42007 16.04 8.42007 14.34C8.42007 13.93 8.76007 13.59 9.17007 13.59C9.58007 13.59 9.92007 13.93 9.92007 14.34C9.92007 15.21 10.5801 15.92 11.3901 15.92H11.7501V12.54L10.2401 12C9.46007 11.73 8.41007 11.15 8.41007 9.36004C8.41007 7.82004 9.62007 6.58004 11.1001 6.58004H11.7501V6.00004C11.7501 5.59004 12.0901 5.25004 12.5001 5.25004C12.9101 5.25004 13.2501 5.59004 13.2501 6.00004V6.58004H13.6101C15.2501 6.58004 16.5801 7.96004 16.5801 9.66004C16.5801 10.07 16.2401 10.41 15.8301 10.41C15.4201 10.41 15.0801 10.07 15.0801 9.66004C15.0801 8.79004 14.4201 8.08004 13.6101 8.08004H13.2501V11.46L14.7601 12Z" fill="url(#paint1_linear_175_3823)"/>
<path d="M9.91992 9.36996C9.91992 10.24 10.2299 10.41 10.7399 10.59L11.7499 10.94V8.07996H11.0999C10.4499 8.07996 9.91992 8.65996 9.91992 9.36996Z" fill="url(#paint2_linear_175_3823)"/>
<defs>
<linearGradient id="paint0_linear_175_3823" x1="14.17" y1="13.0699" x2="14.17" y2="15.9199" gradientUnits="userSpaceOnUse">
<stop stop-color="#FFA229"/>
<stop offset="1" stop-color="#B84D14"/>
</linearGradient>
<linearGradient id="paint1_linear_175_3823" x1="12.5001" y1="1.90002" x2="12.5001" y2="21.9001" gradientUnits="userSpaceOnUse">
<stop stop-color="#FFA229"/>
<stop offset="1" stop-color="#B84D14"/>
</linearGradient>
<linearGradient id="paint2_linear_175_3823" x1="10.8349" y1="8.07996" x2="10.8349" y2="10.94" gradientUnits="userSpaceOnUse">
<stop stop-color="#FFA229"/>
<stop offset="1" stop-color="#B84D14"/>
</linearGradient>
</defs>
</svg>
